<svg id="dollar_550638" xmlns="http://www.w3.org/2000/svg" width="11.218" height="11.218" viewBox="0 0 11.218 11.218">
  <path id="Trazado_875715" data-name="Trazado 875715" d="M5.631,0A5.629,5.629,0,0,0,0,5.587a5.666,5.666,0,0,0,5.631,5.631A5.609,5.609,0,0,0,5.631,0Z" fill="#fedb41"/>
  <path id="Trazado_875716" data-name="Trazado 875716" d="M262.587,5.587A5.629,5.629,0,0,1,257,11.218V0A5.591,5.591,0,0,1,262.587,5.587Z" transform="translate(-251.369)" fill="#fc3"/>
  <path id="Trazado_875717" data-name="Trazado 875717" d="M64.316,60a4.295,4.295,0,1,0,4.273,4.273A4.319,4.319,0,0,0,64.316,60Z" transform="translate(-58.685 -58.685)" fill="#fea832"/>
  <path id="Trazado_875718" data-name="Trazado 875718" d="M261.273,64.273A4.319,4.319,0,0,1,257,68.589V60A4.281,4.281,0,0,1,261.273,64.273Z" transform="translate(-251.369 -58.685)" fill="#fe9923"/>
  <path id="Trazado_875719" data-name="Trazado 875719" d="M182.344,122.629h-.329v-1.315h.329a.325.325,0,0,1,.329.329.329.329,0,0,0,.657,0,.985.985,0,0,0-.986-.986h-.329v-.329a.329.329,0,0,0-.657,0v.329h-.372a.985.985,0,0,0-.986.986v.657a.985.985,0,0,0,.986.986h.372v1.358h-.372a.325.325,0,0,1-.329-.329.329.329,0,0,0-.657,0,.985.985,0,0,0,.986.986h.372v.329a.329.329,0,0,0,.657,0V125.3h.329a.985.985,0,0,0,.986-.986v-.7A.985.985,0,0,0,182.344,122.629Zm-.986,0h-.372a.325.325,0,0,1-.329-.329v-.657a.325.325,0,0,1,.329-.329h.372Zm1.315,1.687a.325.325,0,0,1-.329.329h-.329v-1.358h.329a.325.325,0,0,1,.329.329Z" transform="translate(-176.056 -117.371)" fill="#fedb41"/>
  <path id="Trazado_875720" data-name="Trazado 875720" d="M257.657,122.629h-.329v-1.315h.329a.325.325,0,0,1,.329.329.329.329,0,0,0,.657,0,.985.985,0,0,0-.986-.986h-.329v-.329A.317.317,0,0,0,257,120v5.96a.317.317,0,0,0,.329-.329V125.3h.329a.985.985,0,0,0,.986-.986v-.7A.985.985,0,0,0,257.657,122.629Zm.329,1.687a.325.325,0,0,1-.329.329h-.329v-1.358h.329a.325.325,0,0,1,.329.329Z" transform="translate(-251.369 -117.371)" fill="#fc3"/>
</svg>
