<svg xmlns="http://www.w3.org/2000/svg" width="15" height="15" viewBox="0 0 15 15">
  <g id="Grupo_1212033" data-name="Grupo 1212033" transform="translate(-810 -473.313)">
    <g id="dollar_550638" transform="translate(810 473.313)">
      <path id="Trazado_875715" data-name="Trazado 875715" d="M7.529,0A7.526,7.526,0,0,0,0,7.471,7.576,7.576,0,0,0,7.529,15a7.5,7.5,0,0,0,0-15Z" fill="#fedb41"/>
      <path id="Trazado_875716" data-name="Trazado 875716" d="M264.727,7.471A7.656,7.656,0,0,1,257,15V0A7.607,7.607,0,0,1,264.727,7.471Z" transform="translate(-249.727)" fill="#fc3"/>
      <path id="Trazado_875717" data-name="Trazado 875717" d="M66.217,60a6.185,6.185,0,1,0,6.154,6.154A6.22,6.22,0,0,0,66.217,60Z" transform="translate(-58.685 -58.685)" fill="#fea832"/>
      <path id="Trazado_875718" data-name="Trazado 875718" d="M263.413,66.154A6.352,6.352,0,0,1,257,72.371V60A6.3,6.3,0,0,1,263.413,66.154Z" transform="translate(-249.727 -58.685)" fill="#fe9923"/>
      <path id="Trazado_875719" data-name="Trazado 875719" d="M182.344,124.3h-.329v-2.149h.329c.184,0,.329.236.329.537,0,.709.657.709.657,0,0-.892-.44-1.612-.986-1.612h-.329v-.537c0-.355-.164-.537-.329-.537s-.329.183-.329.537v.537h-.372c-.546,0-.986.72-.986,1.612v1.074c0,.892.44,1.612.986,1.612h.372v2.22h-.372c-.184,0-.329-.236-.329-.537,0-.709-.657-.709-.657,0,0,.892.44,1.612.986,1.612h.372v.537c0,.355.164.537.329.537s.329-.183.329-.537v-.537h.329c.546,0,.986-.72.986-1.612v-1.146C183.33,125.018,182.89,124.3,182.344,124.3Zm-.986,0h-.372c-.184,0-.329-.236-.329-.537v-1.074c0-.3.145-.537.329-.537h.372Zm1.315,2.758c0,.3-.145.537-.329.537h-.329v-2.22h.329c.184,0,.329.236.329.537Z" transform="translate(-174.165 -117.371)" fill="#fedb41"/>
      <path id="Trazado_875720" data-name="Trazado 875720" d="M257.666,124.3h-.333v-2.149h.333c.187,0,.333.236.333.537,0,.709.666.709.666,0,0-.892-.446-1.612-1-1.612h-.333v-.537c0-.355-.167-.537-.333-.537v9.741c.167,0,.333-.183.333-.537v-.537h.333c.553,0,1-.72,1-1.612v-1.146C258.666,125.018,258.219,124.3,257.666,124.3Zm.333,2.758c0,.3-.147.537-.333.537h-.333v-2.22h.333c.187,0,.333.236.333.537Z" transform="translate(-249.727 -117.371)" fill="#fc3"/>
    </g>
  </g>
</svg>
