<svg xmlns="http://www.w3.org/2000/svg" width="71.937" height="71.937" viewBox="0 0 71.937 71.937">
  <g id="Grupo_1212035" data-name="Grupo 1212035" transform="translate(-214.73 -927.312)">
    <g id="Grupo_1211858" data-name="Grupo 1211858" transform="translate(214.73 927.312)">
      <g id="Grupo_1099455" data-name="Grupo 1099455">
        <g id="Grupo_1099454" data-name="Grupo 1099454">
          <g id="Grupo_1099453" data-name="Grupo 1099453">
            <g id="Grupo_1099452" data-name="Grupo 1099452">
              <g id="Grupo_1099451" data-name="Grupo 1099451">
                <g id="Grupo_1099450" data-name="Grupo 1099450">
                  <g id="Grupo_1099449" data-name="Grupo 1099449">
                    <g id="Grupo_1099448" data-name="Grupo 1099448">
                      <g id="Grupo_1099447" data-name="Grupo 1099447">
                        <g id="Grupo_1099446" data-name="Grupo 1099446">
                          <g id="Grupo_1099445" data-name="Grupo 1099445">
                            <g id="Grupo_1099444" data-name="Grupo 1099444">
                              <g id="Grupo_1099443" data-name="Grupo 1099443">
                                <g id="Grupo_1099442" data-name="Grupo 1099442">
                                  <g id="Grupo_1099441" data-name="Grupo 1099441">
                                    <circle id="Elipse_11490" data-name="Elipse 11490" cx="35.968" cy="35.968" r="35.968" fill="#ffd944"/>
                                  </g>
                                </g>
                              </g>
                            </g>
                          </g>
                        </g>
                      </g>
                    </g>
                  </g>
                </g>
              </g>
            </g>
          </g>
        </g>
      </g>
    </g>
    <g id="vdo-smartphone-elearning-school-education" transform="translate(227.744 939.325)">
      <path id="Trazado_884321" data-name="Trazado 884321" d="M9,3H41.259V29.649H9Z" transform="translate(-1.792)" fill="#ffcd00"/>
      <path id="Trazado_884322" data-name="Trazado 884322" d="M19,30.246H44.246V5A25.246,25.246,0,0,1,19,30.246Z" transform="translate(-4.779 -0.597)" fill="#efb810"/>
      <path id="Trazado_884323" data-name="Trazado 884323" d="M56.4,3H55V29.649h1.4a2.805,2.805,0,0,0,2.805-2.805V5.805A2.805,2.805,0,0,0,56.4,3Z" transform="translate(-15.533)" fill="#006df0"/>
      <path id="Trazado_884324" data-name="Trazado 884324" d="M3,5.805V26.844a2.805,2.805,0,0,0,2.805,2.805h1.4V3h-1.4A2.805,2.805,0,0,0,3,5.805Z" fill="#006df0"/>
      <path id="Trazado_884325" data-name="Trazado 884325" d="M39.22,53H28v5.61H40.623V53Z" transform="translate(-7.468 -14.936)" fill="#004fac"/>
      <circle id="Elipse_11500" data-name="Elipse 11500" cx="9.049" cy="9.049" r="9.049" transform="translate(14.147 7.479)" fill="#ed1c24"/>
      <path id="Trazado_884326" data-name="Trazado 884326" d="M27,14V25.22l9.818-5.61Z" transform="translate(-7.169 -3.286)" fill="#f1f2f2"/>
      <path id="Trazado_884327" data-name="Trazado 884327" d="M37.431,30.61a1.4,1.4,0,0,0-1.4,1.4,1.4,1.4,0,1,0-2.805,0,1.4,1.4,0,1,0-2.805,0V26.4a1.4,1.4,0,0,0-2.805,0V36.922l-2.046-2.865a2.1,2.1,0,0,0-3.216-.248l-.342.351,1.373,2.06,3.762,5.649a2.809,2.809,0,0,1,.47,1.555v1.211h9.818V43.508a2.373,2.373,0,0,1,.7-1.683,2.373,2.373,0,0,0,.7-1.683V32.013a1.4,1.4,0,0,0-1.4-1.4Z" transform="translate(-5.678 -6.572)" fill="#ffbcab"/>
      <g id="Grupo_1099511" data-name="Grupo 1099511" transform="translate(17.812 18.428)">
        <path id="Trazado_884328" data-name="Trazado 884328" d="M41.253,34.4v2.1h-.7V34.4a1.371,1.371,0,0,0-.414-.989,1.386,1.386,0,0,0-.638-.365A1.459,1.459,0,0,1,39.851,33,1.413,1.413,0,0,1,41.253,34.4Z" transform="translate(-28.716 -27.39)" fill="#ff9478"/>
        <path id="Trazado_884329" data-name="Trazado 884329" d="M37.253,34.4v2.1h-.7V34.4a1.371,1.371,0,0,0-.414-.989,1.386,1.386,0,0,0-.638-.365A1.459,1.459,0,0,1,35.851,33,1.413,1.413,0,0,1,37.253,34.4Z" transform="translate(-27.521 -27.39)" fill="#ff9478"/>
        <path id="Trazado_884330" data-name="Trazado 884330" d="M33.253,26.4v7.714h-.7V26.4a1.371,1.371,0,0,0-.414-.989,1.386,1.386,0,0,0-.638-.365A1.459,1.459,0,0,1,31.851,25,1.413,1.413,0,0,1,33.253,26.4Z" transform="translate(-26.326 -25)" fill="#ff9478"/>
        <path id="Trazado_884331" data-name="Trazado 884331" d="M26.2,37.542a2.094,2.094,0,0,0-2.076-.842,2.078,2.078,0,0,1,1.375.842L28.244,41.3v-.973Z" transform="translate(-24.122 -28.485)" fill="#ff9478"/>
      </g>
      <g id="Grupo_1099512" data-name="Grupo 1099512" transform="translate(4.403 14.922)">
        <path id="Trazado_884332" data-name="Trazado 884332" d="M5.7,20a.7.7,0,0,0-.7.7v1.4a.7.7,0,1,0,1.4,0V20.7A.7.7,0,0,0,5.7,20Z" transform="translate(-5 -20)" fill="#f1f2f2"/>
        <path id="Trazado_884333" data-name="Trazado 884333" d="M57.7,20a.7.7,0,0,0-.7.7v1.4a.7.7,0,1,0,1.4,0V20.7A.7.7,0,0,0,57.7,20Z" transform="translate(-20.533 -20)" fill="#f1f2f2"/>
        <path id="Trazado_884334" data-name="Trazado 884334" d="M42.4,56h-.7a.7.7,0,0,0,0,1.4h.7a.7.7,0,0,0,0-1.4Z" transform="translate(-15.754 -30.754)" fill="#f1f2f2"/>
      </g>
      <path id="Trazado_884335" data-name="Trazado 884335" d="M43.7,33a1.379,1.379,0,0,0-.351.05A1.4,1.4,0,0,1,44.4,34.4v8.129a2.373,2.373,0,0,1-.7,1.683A2.373,2.373,0,0,0,43,45.9v1.128h.7V45.9a2.373,2.373,0,0,1,.7-1.683,2.373,2.373,0,0,0,.7-1.683V34.4A1.4,1.4,0,0,0,43.7,33Z" transform="translate(-11.949 -8.962)" fill="#ff9478"/>
    </g>
  </g>
</svg>
