<svg xmlns="http://www.w3.org/2000/svg" width="101.928" height="101.928" viewBox="0 0 101.928 101.928">
  <g id="Grupo_1212035" data-name="Grupo 1212035" transform="translate(-861 -2964)">
    <g id="Grupo_1212034" data-name="Grupo 1212034">
      <g id="Grupo_1099470" data-name="Grupo 1099470" transform="translate(861 2964)">
        <g id="Grupo_1098742" data-name="Grupo 1098742" transform="translate(0 0)">
          <g id="Rect치ngulo_400898" data-name="Rect치ngulo 400898" fill="#fff" stroke="#fff" stroke-width="3" opacity="0.859">
            <rect width="101.928" height="101.928" rx="50.964" stroke="none"/>
            <rect x="1.5" y="1.5" width="98.928" height="98.928" rx="49.464" fill="none"/>
          </g>
          <g id="Rect치ngulo_400907" data-name="Rect치ngulo 400907" transform="translate(0)" fill="none" stroke="#fff" stroke-width="3">
            <rect width="101.928" height="101.928" rx="50.964" stroke="none"/>
            <rect x="1.5" y="1.5" width="98.928" height="98.928" rx="49.464" fill="none"/>
          </g>
        </g>
      </g>
      <g id="_x39_9" transform="translate(879.1 2982)">
        <g id="Grupo_1211925" data-name="Grupo 1211925" transform="translate(3.9 26.813)">
          <path id="Trazado_1096120" data-name="Trazado 1096120" d="M30.338,24.819,24,21.2l-9.3,5.3.129,20.161,6.333,3.748,9.3-5.428Z" transform="translate(-0.743 -21.2)" fill="#986ff9"/>
          <g id="Grupo_1211920" data-name="Grupo 1211920" transform="translate(13.957)">
            <g id="Grupo_1211917" data-name="Grupo 1211917" transform="translate(0 5.299)">
              <path id="Trazado_1096121" data-name="Trazado 1096121" d="M21.162,49.209l-6.333-3.748L14.7,25.3l6.333,3.748Z" transform="translate(-14.7 -25.3)" fill="#7e5af2"/>
            </g>
            <g id="Grupo_1211918" data-name="Grupo 1211918">
              <path id="Trazado_1096122" data-name="Trazado 1096122" d="M21.033,30.247,14.7,26.5,24,21.2l6.333,3.619Z" transform="translate(-14.7 -21.2)" fill="#b28afd"/>
            </g>
            <g id="Grupo_1211919" data-name="Grupo 1211919" transform="translate(6.333 3.619)">
              <path id="Trazado_1096123" data-name="Trazado 1096123" d="M28.9,24l.129,20.161-9.3,5.428L19.6,29.428Z" transform="translate(-19.6 -24)" fill="#986ff9"/>
            </g>
          </g>
          <path id="Trazado_1096124" data-name="Trazado 1096124" d="M19.538,37.919,13.2,34.3,3.9,39.728V50.971l6.333,3.619,9.434-5.428Z" transform="translate(-3.9 -17.37)" fill="#72d561"/>
          <g id="Grupo_1211924" data-name="Grupo 1211924" transform="translate(0 16.93)">
            <g id="Grupo_1211921" data-name="Grupo 1211921" transform="translate(0 5.428)">
              <path id="Trazado_1096125" data-name="Trazado 1096125" d="M10.233,53.362,3.9,49.744V38.5l6.333,3.619Z" transform="translate(-3.9 -38.5)" fill="#5ec363"/>
            </g>
            <g id="Grupo_1211922" data-name="Grupo 1211922">
              <path id="Trazado_1096126" data-name="Trazado 1096126" d="M10.233,43.347,3.9,39.728,13.2,34.3l6.333,3.619Z" transform="translate(-3.9 -34.3)" fill="#78e75a"/>
            </g>
            <g id="Grupo_1211923" data-name="Grupo 1211923" transform="translate(6.333 3.619)">
              <path id="Trazado_1096127" data-name="Trazado 1096127" d="M18.1,37.1l.129,11.244L8.8,53.771V42.528Z" transform="translate(-8.8 -37.1)" fill="#72d561"/>
            </g>
          </g>
        </g>
        <g id="Grupo_1211928" data-name="Grupo 1211928" transform="translate(28.455 2)">
          <g id="Grupo_1211927" data-name="Grupo 1211927">
            <g id="Grupo_1211926" data-name="Grupo 1211926">
              <path id="Trazado_1096128" data-name="Trazado 1096128" d="M39.442,15.182,39.571,44,32.98,47.749l-4.523-2.714-.129-23.392-.9.517L22.9,19.447,31.559,2l4.523,2.585,8.788,7.5Z" transform="translate(-22.9 -2)" fill="#f3f1fc"/>
            </g>
          </g>
        </g>
        <g id="Grupo_1211933" data-name="Grupo 1211933" transform="translate(28.455 2)">
          <g id="Grupo_1211932" data-name="Grupo 1211932">
            <g id="Grupo_1211929" data-name="Grupo 1211929" transform="translate(5.428 14.345)">
              <path id="Trazado_1096129" data-name="Trazado 1096129" d="M31.752,44.5,27.229,41.79,27.1,13.1l4.523,2.585Z" transform="translate(-27.1 -13.1)" fill="#dedffb"/>
            </g>
            <g id="Grupo_1211930" data-name="Grupo 1211930">
              <path id="Trazado_1096130" data-name="Trazado 1096130" d="M27.423,22.161,22.9,19.447,31.559,2l4.523,2.714Z" transform="translate(-22.9 -2)" fill="#e9e7fc"/>
            </g>
            <g id="Grupo_1211931" data-name="Grupo 1211931" transform="translate(4.523 2.714)">
              <path id="Trazado_1096131" data-name="Trazado 1096131" d="M35.059,4.1l8.788,7.366-5.428,3.1.129,28.82-6.591,3.748-.129-28.82L26.4,21.547Z" transform="translate(-26.4 -4.1)" fill="#f3f1fc"/>
            </g>
          </g>
        </g>
        <g id="Grupo_1211936" data-name="Grupo 1211936" transform="translate(40.732 27.274)">
          <path id="Trazado_1096132" data-name="Trazado 1096132" d="M37.569,45.392l-2.585-1.551C33.434,42.937,32.4,41,32.4,38.155c0-5.686,4.006-12.536,8.917-15.379,2.455-1.422,4.652-1.551,6.333-.646l2.585,1.551Z" transform="translate(-32.4 -21.556)" fill="#ffd06c"/>
          <path id="Trazado_1096133" data-name="Trazado 1096133" d="M43.188,23.975c4.911-2.843,8.917-.517,8.917,5.04,0,5.686-4.006,12.536-8.788,15.379-4.911,2.843-8.917.517-8.917-5.04,0-5.686,3.877-12.536,8.788-15.379Z" transform="translate(-31.815 -21.205)" fill="#f9a83d"/>
          <path id="Trazado_1096134" data-name="Trazado 1096134" d="M38.989,43.832c-2.2,0-3.489-1.809-3.489-4.911,0-5.04,3.748-11.5,8.142-14.087A7.182,7.182,0,0,1,46.873,23.8c2.2,0,3.489,1.809,3.489,4.911,0,5.04-3.748,11.5-8.142,14.087A5.874,5.874,0,0,1,38.989,43.832Z" transform="translate(-31.494 -20.9)" fill="#ffd06c"/>
          <g id="Grupo_1211934" data-name="Grupo 1211934" transform="translate(8.659 7.236)">
            <path id="Trazado_1096135" data-name="Trazado 1096135" d="M44.269,32.253c.258.129.388.517.388,1.034a4.592,4.592,0,0,1-.258,1.292,11.366,11.366,0,0,1-.775,1.292,5.06,5.06,0,0,1-1.292,1.034v.9c0,.129,0,.258-.129.258,0,.129-.129.129-.258.258h-.258a.451.451,0,0,1-.129-.258v-.9a4.75,4.75,0,0,1-2.068.646c-.129,0-.129,0-.258-.129a.451.451,0,0,1-.129-.258.475.475,0,0,1,.129-.388c.129-.129.129-.258.258-.388.129,0,.129,0,.258-.129A5.547,5.547,0,0,0,41.555,36V33.287a6.556,6.556,0,0,1-1.163.258c-.258,0-.646,0-.775-.258-.258-.129-.388-.517-.388-1.034a5.688,5.688,0,0,1,.258-1.292,3.443,3.443,0,0,1,.775-1.292,11.652,11.652,0,0,1,1.292-1.163V27.73c0-.129,0-.258.129-.258,0-.129.129-.129.258-.258s.129,0,.258,0a.451.451,0,0,1,.129.258v.775A6.151,6.151,0,0,1,44.14,27.6a.278.278,0,0,1,.258.258.475.475,0,0,1-.129.388c-.129.129-.129.258-.258.388h-.129a7.286,7.286,0,0,0-1.551.517v2.843a5.688,5.688,0,0,1,1.292-.258c.129.258.388.258.646.517ZM42.2,35.872a2.877,2.877,0,0,0,1.422-2.2c0-.258-.129-.517-.388-.517a3.212,3.212,0,0,0-1.034.129Zm-.646-3.489V29.8a3.933,3.933,0,0,0-1.034,1.034,2.084,2.084,0,0,0-.388,1.163.6.6,0,0,0,.388.646,5.813,5.813,0,0,0,1.034-.258" transform="translate(-39.1 -27.156)" fill="#f9a83d"/>
          </g>
          <g id="Grupo_1211935" data-name="Grupo 1211935" transform="translate(2.585 1.561)" opacity="0.2">
            <path id="Trazado_1096136" data-name="Trazado 1096136" d="M51.567,27.423,41.357,45a5.247,5.247,0,0,1-5.557-.517L48.207,22.9A5.322,5.322,0,0,1,51.567,27.423Z" transform="translate(-33.991 -22.724)" fill="#fff"/>
            <path id="Trazado_1096137" data-name="Trazado 1096137" d="M47.453,22.811,35.434,43.618A6.62,6.62,0,0,1,34.4,40.9L44.61,23.327a4.791,4.791,0,0,1,2.843-.517Z" transform="translate(-34.4 -22.764)" fill="#fff"/>
          </g>
        </g>
      </g>
    </g>
  </g>
</svg>
